<svg width="49" height="49" viewBox="0 0 49 49" fill="none" xmlns="http://www.w3.org/2000/svg">
<g clip-path="url(#clip0_104_48)">
<path d="M46.3612 21.9816L44.1806 8.8969C44.4535 8.73467 44.6852 8.51162 44.8578 8.24514C45.0303 7.97866 45.1391 7.67595 45.1755 7.36057C45.2119 7.04519 45.175 6.72566 45.0677 6.42687C44.9604 6.12808 44.7855 5.8581 44.5568 5.63796C44.328 5.41782 44.0515 5.25345 43.7489 5.15766C43.4462 5.06188 43.1255 5.03726 42.8117 5.08573C42.498 5.13419 42.1996 5.25444 41.94 5.43709C41.6803 5.61974 41.4663 5.85987 41.3146 6.13878L26.0006 4.1869C25.4812 2.11409 22.5187 2.11222 21.9993 4.1869L6.68526 6.13878C6.5336 5.85987 6.3196 5.61974 6.05993 5.43709C5.80026 5.25444 5.50193 5.13419 5.18818 5.08573C4.87443 5.03726 4.55372 5.06188 4.25104 5.15766C3.94836 5.25345 3.67188 5.41782 3.44313 5.63796C3.21438 5.8581 3.03954 6.12808 2.93222 6.42687C2.82491 6.72566 2.78801 7.04519 2.82442 7.36057C2.86083 7.67595 2.96955 7.97866 3.14211 8.24514C3.31468 8.51162 3.54643 8.73467 3.81932 8.8969L1.6387 21.9816C1.17544 22.0789 0.759754 22.3326 0.461416 22.7002C0.163078 23.0677 0.000244141 23.5267 0.000244141 24C0.000244141 24.4734 0.163078 24.9324 0.461416 25.2999C0.759754 25.6674 1.17544 25.9211 1.6387 26.0185L3.81932 39.1032C2.01463 40.1803 2.81245 42.9375 4.87495 42.9375C5.24565 42.9383 5.60965 42.8388 5.92837 42.6495C6.24708 42.4602 6.50862 42.1881 6.68526 41.8622L21.9993 43.8141C22.5187 45.8869 25.4812 45.8888 26.0006 43.8141L41.3146 41.8622C41.4663 42.1411 41.6803 42.3813 41.94 42.5639C42.1996 42.7466 42.498 42.8668 42.8117 42.9153C43.1255 42.9637 43.4462 42.9391 43.7489 42.8433C44.0515 42.7475 44.328 42.5832 44.5568 42.363C44.7855 42.1429 44.9604 41.8729 45.0677 41.5741C45.175 41.2753 45.2119 40.9558 45.1755 40.6404C45.1391 40.3251 45.0303 40.0223 44.8578 39.7559C44.6852 39.4894 44.4535 39.2663 44.1806 39.1041L46.3612 26.0194C46.8245 25.9221 47.2401 25.6684 47.5385 25.3008C47.8368 24.9333 47.9996 24.4743 47.9996 24.001C47.9996 23.5276 47.8368 23.0686 47.5385 22.7011C47.2401 22.3336 46.8245 22.0799 46.3612 21.9825V21.9816ZM25.8103 5.67472L41.1234 7.62659C41.1517 7.73849 41.189 7.84791 41.2349 7.95378L38.3081 10.8807C37.4643 10.485 38.1018 10.5938 24.7499 10.5938V6.60753C25.2016 6.43008 25.5767 6.10003 25.8103 5.67472ZM6.87276 7.62659L22.1896 5.67472C22.4224 6.10169 22.7977 6.43345 23.2499 6.61222V10.5938C9.80995 10.5938 10.5299 10.4869 9.69182 10.8807L6.76495 7.95378C6.81091 7.84791 6.84822 7.73849 6.87651 7.62659H6.87276ZM21.4687 14.1563C21.4687 14.3552 21.3897 14.546 21.249 14.6866C21.1084 14.8273 20.9176 14.9063 20.7187 14.9063H19.8749C19.676 14.9063 19.4853 14.8273 19.3446 14.6866C19.204 14.546 19.1249 14.3552 19.1249 14.1563C19.1249 13.9574 19.204 13.7666 19.3446 13.6259C19.4853 13.4853 19.676 13.4063 19.8749 13.4063H20.7187C20.9176 13.4063 21.1084 13.4853 21.249 13.6259C21.3897 13.7666 21.4687 13.9574 21.4687 14.1563ZM17.7187 14.1563C17.7187 14.3552 17.6397 14.546 17.499 14.6866C17.3584 14.8273 17.1676 14.9063 16.9687 14.9063H16.1249C15.926 14.9063 15.7353 14.8273 15.5946 14.6866C15.454 14.546 15.3749 14.3552 15.3749 14.1563C15.3749 13.9574 15.454 13.7666 15.5946 13.6259C15.7353 13.4853 15.926 13.4063 16.1249 13.4063H16.9687C17.1676 13.4063 17.3584 13.4853 17.499 13.6259C17.6397 13.7666 17.7187 13.9574 17.7187 14.1563ZM13.9687 14.1563C13.9687 14.3552 13.8897 14.546 13.749 14.6866C13.6084 14.8273 13.4176 14.9063 13.2187 14.9063H12.3749C12.176 14.9063 11.9853 14.8273 11.8446 14.6866C11.704 14.546 11.6249 14.3552 11.6249 14.1563C11.6249 13.9574 11.704 13.7666 11.8446 13.6259C11.9853 13.4853 12.176 13.4063 12.3749 13.4063H13.2187C13.4176 13.4063 13.6084 13.4853 13.749 13.6259C13.8897 13.7666 13.9687 13.9574 13.9687 14.1563ZM5.29963 9.14253C5.43774 9.11274 5.57249 9.06908 5.70182 9.01222L8.5312 11.8425C8.16392 12.3525 7.96706 12.9654 7.9687 13.5938V15.2813C7.9687 15.4802 8.04771 15.671 8.18837 15.8116C8.32902 15.9523 8.51978 16.0313 8.7187 16.0313H39.2812C39.4801 16.0313 39.6709 15.9523 39.8115 15.8116C39.9522 15.671 40.0312 15.4802 40.0312 15.2813C40.0312 13.5835 40.1596 12.8016 39.4687 11.8425L42.299 9.01222C42.4282 9.0695 42.563 9.11317 42.7012 9.14253L44.8828 22.2272C44.4873 22.4614 44.1819 22.8216 44.0156 23.25H40.0312V18.2813C40.0312 18.0824 39.9522 17.8916 39.8115 17.7509C39.6709 17.6103 39.4801 17.5313 39.2812 17.5313H8.7187C8.51978 17.5313 8.32902 17.6103 8.18837 17.7509C8.04771 17.8916 7.9687 18.0824 7.9687 18.2813V23.25H3.98432C3.81849 22.8213 3.51342 22.4608 3.11807 22.2263L5.29963 9.14253ZM5.70276 38.9869C5.57318 38.9301 5.43809 38.8867 5.29963 38.8575L3.11807 25.7728C3.51316 25.5385 3.81819 25.1783 3.98432 24.75H7.9687V34.4063C7.96718 35.0347 8.16403 35.6475 8.5312 36.1575L5.70276 38.9869ZM22.1896 42.3253L6.87651 40.3735C6.84822 40.2616 6.81091 40.1521 6.76495 40.0463L9.69182 37.1194C10.5356 37.515 9.89807 37.4063 23.2499 37.4063V41.3925C22.7983 41.57 22.4232 41.9 22.1896 42.3253ZM41.1271 40.3735L25.8103 42.3253C25.5774 41.8984 25.2022 41.5666 24.7499 41.3878V37.4063C38.1899 37.4063 37.4699 37.5132 38.3081 37.1194L41.2349 40.0463C41.189 40.1521 41.1517 40.2616 41.1234 40.3735H41.1271ZM42.704 38.8575C42.5656 38.8867 42.4305 38.9301 42.3009 38.9869L39.4687 36.1575C39.836 35.6476 40.0328 35.0347 40.0312 34.4063V24.75H44.0156C44.1814 25.1787 44.4865 25.5393 44.8818 25.7738L42.704 38.8575Z" fill="white"/>
</g>
<defs>
<clipPath id="clip0_104_48">
<rect x="0.333374" y="0.5" width="48" height="48" rx="24" fill="blue"/>
</clipPath>
</defs>
</svg>
