<svg width="49" height="49" viewBox="0 0 49 49" fill="none" xmlns="http://www.w3.org/2000/svg">
<g clip-path="url(#clip0_104_62)">
<path d="M16.7499 31C11.7939 30.8477 11.7932 23.653 16.7499 23.5C21.7059 23.6522 21.7067 30.847 16.7499 31ZM47.4999 6.24998C47.5502 7.97273 45.4884 9.10448 44.0672 8.15648L41.9687 9.83573C41.6439 10.0952 41.1729 10.042 40.9142 9.71873L38.4377 6.62348L22.0187 23.0425C22.2887 23.38 22.5272 23.7437 22.7289 24.13L40.4154 21.409L38.6709 17.4842C35.5944 17.6485 35.4137 13.1012 38.4999 13.0015C40.5009 12.9557 41.5157 15.562 40.0449 16.8805L42.1854 21.697C42.2799 21.9107 42.2702 22.156 42.1584 22.3607C42.0467 22.5655 41.8449 22.7065 41.6139 22.7425L23.2772 25.5632C23.4234 26.1415 23.5202 26.7595 23.4932 27.3805L40.3172 30.616C41.4249 28.6622 44.5164 29.4752 44.4992 31.7515C44.4512 34.516 40.4822 34.801 40.0329 32.089L23.2944 28.87C23.1249 29.5562 22.8504 30.1997 22.4882 30.7862L32.0837 35.581C32.6537 35.8187 32.4722 36.6625 32.4984 37.1395C34.8452 37.9765 34.2692 41.4805 31.7484 41.5015C29.2284 41.4805 28.6517 37.9765 30.9984 37.1395V36.715L21.5462 31.9922C20.1767 33.403 18.0699 34.21 15.9984 33.9572V37.7515H21.3864C22.2234 35.4047 25.7274 35.9807 25.7484 38.5015C25.7274 41.0215 22.2234 41.5982 21.3864 39.2515H15.2484C14.8337 39.2515 14.4984 38.9155 14.4984 38.5015V33.6077C14.0177 33.4367 13.5617 33.2147 13.1372 32.9447L11.0034 36.3595C12.1884 37.738 11.0852 40.0622 9.24845 40.0022C5.95145 39.8515 6.48545 34.9847 9.7352 35.5585L11.9582 32.002C11.6919 31.7335 11.4512 31.441 11.2329 31.1312L6.99395 32.5442C6.8702 35.4827 2.5697 35.443 2.49845 32.5022C2.47445 30.382 5.25695 29.4467 6.51395 31.123L10.4994 29.7947C10.2692 29.2307 10.1124 28.63 10.0427 28.0022H5.49995C5.0852 28.0022 4.74995 27.6662 4.74995 27.2522V24.8642C2.4032 24.0272 2.9792 20.5232 5.49995 20.5022C8.01995 20.5232 8.5967 24.0272 6.24995 24.8642V26.5022H10.0442C10.1972 25.1237 10.7687 23.8712 11.6267 22.8692L6.11645 15.1555C2.8127 15.9407 2.10395 10.93 5.49995 10.7522C7.27745 10.6967 8.3942 12.883 7.3412 14.29L12.7337 21.8395C13.4432 21.3115 14.2584 20.9207 15.1427 20.7032L12.2604 4.13048C12.1967 3.76523 12.4104 3.40823 12.7622 3.29048L16.6344 1.99973L16.4282 0.969233C13.7034 0.537982 13.9757 -3.44827 16.7492 -3.49852C19.0164 -3.51652 19.8369 -0.441518 17.8989 0.675982L18.2349 2.35448C18.3092 2.72573 18.0954 3.09323 17.7369 3.21323L13.8489 4.50923L16.6314 20.5075C16.6832 20.506 16.7342 20.4985 16.7859 20.503L17.5007 6.21398C17.5209 5.81498 17.8502 5.50148 18.2499 5.50148H22.2864L24.1322 1.80998C22.7567 0.458483 23.7984 -2.04277 25.7499 -1.99852C28.9022 -1.88602 28.6134 2.77298 25.4777 2.47373L23.4212 6.58673C23.2937 6.84098 23.0342 7.00148 22.7499 7.00148H18.9632L18.2792 20.683C18.4554 20.7242 18.6309 20.7685 18.8019 20.8225L24.0609 11.4737C22.7814 10.0952 23.8532 7.70873 25.7499 7.75148C28.9757 7.88423 28.5647 12.646 25.3667 12.2125L20.1737 21.4435C20.4482 21.6055 20.7107 21.784 20.9589 21.982L37.9697 4.96973C38.1204 4.81898 38.3304 4.74473 38.5419 4.75073C38.7542 4.76273 38.9529 4.86473 39.0864 5.03123L41.6177 8.19548L43.1334 6.98348C42.5957 5.56823 43.7372 3.97073 45.2507 3.99998C46.4934 3.99998 47.4999 5.00723 47.4999 6.24998ZM21.9999 27.25C21.7367 20.2967 11.7639 20.2945 11.4999 27.25C11.4999 30.145 13.8557 32.5 16.7499 32.5C19.6442 32.5 21.9999 30.145 21.9999 27.25Z" fill="white"/>
</g>
<defs>
<clipPath id="clip0_104_62">
<rect x="0.666748" y="0.5" width="48" height="48" rx="24" fill="blue"/>
</clipPath>
</defs>
</svg>
