<svg width="43" height="42" viewBox="0 0 43 42" fill="blue" xmlns="http://www.w3.org/2000/svg">
<path d="M42.3332 21C42.3291 19.9976 41.9904 19.0252 41.3708 18.2372C40.7513 17.4492 39.8863 16.8905 38.9132 16.65L36.8432 11.505C37.4928 11.1947 38.0586 10.7331 38.4928 10.159C38.9271 9.5848 39.2173 8.91482 39.3391 8.20527C39.4608 7.49573 39.4105 6.76733 39.1925 6.08124C38.9744 5.39515 38.5949 4.77139 38.0859 4.26233C37.5768 3.75328 36.953 3.37378 36.267 3.15572C35.5809 2.93765 34.8525 2.88738 34.1429 3.00912C33.4334 3.13086 32.7634 3.42105 32.1892 3.85535C31.6151 4.28964 31.1535 4.85535 30.8432 5.50497L25.6832 3.41997C25.429 2.46024 24.8646 1.61152 24.0778 1.006C23.291 0.400475 22.326 0.0721436 21.3332 0.0721436C20.3404 0.0721436 19.3754 0.400475 18.5887 1.006C17.8019 1.61152 17.2374 2.46024 16.9832 3.41997L11.8382 5.48997C11.528 4.84034 11.0664 4.27464 10.4922 3.84035C9.91805 3.40605 9.24807 3.11586 8.53852 2.99412C7.82898 2.87238 7.10058 2.92265 6.41449 3.14072C5.7284 3.35878 5.10464 3.73828 4.59558 4.24733C4.08653 4.75639 3.70704 5.38015 3.48897 6.06624C3.27091 6.75233 3.22063 7.48073 3.34237 8.19027C3.46411 8.89982 3.75431 9.5698 4.1886 10.144C4.62289 10.7181 5.1886 11.1797 5.83822 11.49L3.75322 16.65C2.7935 16.9042 1.94477 17.4686 1.33925 18.2554C0.733727 19.0422 0.405396 20.0072 0.405396 21C0.405396 21.9928 0.733727 22.9577 1.33925 23.7445C1.94477 24.5313 2.7935 25.0958 3.75322 25.35L5.82322 30.495C5.1736 30.8052 4.60789 31.2668 4.1736 31.841C3.73931 32.4151 3.44911 33.0851 3.32737 33.7947C3.20563 34.5042 3.25591 35.2326 3.47397 35.9187C3.69204 36.6048 4.07153 37.2286 4.58058 37.7376C5.08964 38.2467 5.7134 38.6262 6.39949 38.8442C7.08558 39.0623 7.81398 39.1126 8.52352 38.9908C9.23307 38.8691 9.90305 38.5789 10.4772 38.1446C11.0514 37.7103 11.513 37.1446 11.8232 36.495L16.9682 38.565C17.2224 39.5247 17.7869 40.3734 18.5737 40.9789C19.3604 41.5845 20.3254 41.9128 21.3182 41.9128C22.311 41.9128 23.276 41.5845 24.0628 40.9789C24.8496 40.3734 25.414 39.5247 25.6682 38.565L30.8132 36.495C31.1235 37.1446 31.5851 37.7103 32.1592 38.1446C32.7334 38.5789 33.4034 38.8691 34.1129 38.9908C34.8225 39.1126 35.5509 39.0623 36.237 38.8442C36.923 38.6262 37.5468 38.2467 38.0559 37.7376C38.5649 37.2286 38.9444 36.6048 39.1625 35.9187C39.3805 35.2326 39.4308 34.5042 39.3091 33.7947C39.1873 33.0851 38.8971 32.4151 38.4628 31.841C38.0286 31.2668 37.4628 30.8052 36.8132 30.495L38.8832 25.35C39.8619 25.1151 40.7336 24.559 41.359 23.7704C41.9844 22.9819 42.3274 22.0064 42.3332 21ZM17.3282 35.49L12.1832 33.42C12.1169 33.1242 12.0162 32.8373 11.8832 32.565L17.2082 27.255C18.0054 27.7841 18.8964 28.1557 19.8332 28.35V33.27C18.7438 33.6604 17.8467 34.4554 17.3282 35.49ZM4.83322 19.5C5.1299 19.5 5.4199 19.5879 5.66658 19.7528C5.91325 19.9176 6.10551 20.1519 6.21904 20.4259C6.33257 20.7 6.36228 21.0016 6.3044 21.2926C6.24652 21.5836 6.10366 21.8509 5.89388 22.0606C5.6841 22.2704 5.41683 22.4133 5.12586 22.4711C4.83489 22.529 4.53329 22.4993 4.2592 22.3858C3.98511 22.2723 3.75084 22.08 3.58602 21.8333C3.4212 21.5867 3.33322 21.2966 3.33322 21C3.33322 20.6021 3.49126 20.2206 3.77256 19.9393C4.05387 19.658 4.4354 19.5 4.83322 19.5ZM25.3382 6.50997L30.4832 8.57997C30.5495 8.8757 30.6502 9.16265 30.7832 9.43497L25.4582 14.745C24.6611 14.2159 23.7701 13.8442 22.8332 13.65V8.72997C23.9226 8.33959 24.8197 7.54454 25.3382 6.50997ZM39.3332 21C39.3332 21.2966 39.2452 21.5867 39.0804 21.8333C38.9156 22.08 38.6813 22.2723 38.4072 22.3858C38.1332 22.4993 37.8316 22.529 37.5406 22.4711C37.2496 22.4133 36.9823 22.2704 36.7726 22.0606C36.5628 21.8509 36.4199 21.5836 36.362 21.2926C36.3042 21.0016 36.3339 20.7 36.4474 20.4259C36.5609 20.1519 36.7532 19.9176 36.9999 19.7528C37.2465 19.5879 37.5365 19.5 37.8332 19.5C38.231 19.5 38.6126 19.658 38.8939 19.9393C39.1752 20.2206 39.3332 20.6021 39.3332 21ZM33.6032 19.5H28.6832C28.489 18.5631 28.1173 17.6721 27.5882 16.875L32.8982 11.55C33.1705 11.683 33.4575 11.7837 33.7532 11.85L35.8232 16.995C34.7887 17.5135 33.9936 18.4106 33.6032 19.5ZM21.3332 25.5C20.4432 25.5 19.5732 25.2361 18.8332 24.7416C18.0931 24.2471 17.5164 23.5443 17.1758 22.722C16.8352 21.8998 16.7461 20.995 16.9197 20.1221C17.0933 19.2492 17.5219 18.4473 18.1512 17.818C18.7806 17.1887 19.5824 16.7601 20.4553 16.5864C21.3282 16.4128 22.233 16.5019 23.0553 16.8425C23.8776 17.1831 24.5804 17.7599 25.0748 18.4999C25.5693 19.2399 25.8332 20.11 25.8332 21C25.8332 22.1934 25.3591 23.338 24.5152 24.182C23.6713 25.0259 22.5267 25.5 21.3332 25.5ZM19.8332 8.72997V13.65C18.8964 13.8442 18.0054 14.2159 17.2082 14.745L11.8832 9.43497C12.0162 9.16265 12.1169 8.8757 12.1832 8.57997L17.3282 6.50997C17.8467 7.54454 18.7438 8.33959 19.8332 8.72997ZM9.76822 11.55L15.0782 16.875C14.5491 17.6721 14.1774 18.5631 13.9832 19.5H9.06322C8.67284 18.4106 7.87779 17.5135 6.84322 16.995L8.91322 11.85C9.20895 11.7837 9.4959 11.683 9.76822 11.55ZM9.06322 22.5H13.9832C14.1774 23.4368 14.5491 24.3278 15.0782 25.125L9.76822 30.45C9.4959 30.317 9.20895 30.2163 8.91322 30.15L6.84322 25.005C7.87779 24.4865 8.67284 23.5894 9.06322 22.5ZM22.8332 33.27V28.35C23.7701 28.1557 24.6611 27.7841 25.4582 27.255L30.7832 32.565C30.6502 32.8373 30.5495 33.1242 30.4832 33.42L25.3382 35.49C24.8197 34.4554 23.9226 33.6604 22.8332 33.27ZM32.8982 30.45L27.5882 25.125C28.1173 24.3278 28.489 23.4368 28.6832 22.5H33.6032C33.9936 23.5894 34.7887 24.4865 35.8232 25.005L33.7532 30.15C33.4575 30.2163 33.1705 30.317 32.8982 30.45ZM34.8332 5.99997C35.1299 5.99997 35.4199 6.08794 35.6666 6.25277C35.9132 6.41759 36.1055 6.65186 36.219 6.92595C36.3326 7.20004 36.3623 7.50164 36.3044 7.79261C36.2465 8.08358 36.1037 8.35085 35.8939 8.56063C35.6841 8.77041 35.4168 8.91327 35.1259 8.97115C34.8349 9.02903 34.5333 8.99932 34.2592 8.88579C33.9851 8.77226 33.7508 8.58 33.586 8.33333C33.4212 8.08665 33.3332 7.79664 33.3332 7.49997C33.3332 7.10215 33.4913 6.72062 33.7726 6.43931C34.0539 6.15801 34.4354 5.99997 34.8332 5.99997ZM21.3332 2.99997C21.6299 2.99997 21.9199 3.08795 22.1666 3.25277C22.4133 3.41759 22.6055 3.65186 22.719 3.92595C22.8326 4.20004 22.8623 4.50164 22.8044 4.79261C22.7465 5.08358 22.6037 5.35085 22.3939 5.56063C22.1841 5.77041 21.9168 5.91327 21.6259 5.97115C21.3349 6.02903 21.0333 5.99932 20.7592 5.88579C20.4851 5.77226 20.2508 5.58 20.086 5.33333C19.9212 5.08665 19.8332 4.79664 19.8332 4.49997C19.8332 4.10215 19.9913 3.72062 20.2726 3.43931C20.5539 3.15801 20.9354 2.99997 21.3332 2.99997ZM7.83322 5.99997C8.12989 5.99997 8.4199 6.08794 8.66658 6.25277C8.91325 6.41759 9.10551 6.65186 9.21904 6.92595C9.33257 7.20004 9.36228 7.50164 9.3044 7.79261C9.24652 8.08358 9.10366 8.35085 8.89388 8.56063C8.6841 8.77041 8.41683 8.91327 8.12586 8.97115C7.83489 9.02903 7.53329 8.99932 7.2592 8.88579C6.98511 8.77226 6.75084 8.58 6.58602 8.33333C6.4212 8.08665 6.33322 7.79664 6.33322 7.49997C6.33322 7.10215 6.49126 6.72062 6.77256 6.43931C7.05387 6.15801 7.4354 5.99997 7.83322 5.99997ZM7.83322 36C7.4354 36 7.05387 35.8419 6.77256 35.5606C6.49126 35.2793 6.33322 34.8978 6.33322 34.5C6.33322 34.1021 6.49126 33.7206 6.77256 33.4393C7.05387 33.158 7.4354 33 7.83322 33C8.23105 33 8.61258 33.158 8.89388 33.4393C9.17519 33.7206 9.33322 34.1021 9.33322 34.5C9.33322 34.8978 9.17519 35.2793 8.89388 35.5606C8.61258 35.8419 8.23105 36 7.83322 36ZM21.3332 39C21.0366 39 20.7465 38.912 20.4999 38.7472C20.2532 38.5824 20.0609 38.3481 19.9474 38.074C19.8339 37.7999 19.8042 37.4983 19.862 37.2073C19.9199 36.9164 20.0628 36.6491 20.2726 36.4393C20.4823 36.2295 20.7496 36.0867 21.0406 36.0288C21.3316 35.9709 21.6332 36.0006 21.9072 36.1142C22.1813 36.2277 22.4156 36.4199 22.5804 36.6666C22.7452 36.9133 22.8332 37.2033 22.8332 37.5C22.8332 37.8978 22.6752 38.2793 22.3939 38.5606C22.1126 38.8419 21.731 39 21.3332 39ZM34.8332 36C34.4354 36 34.0539 35.8419 33.7726 35.5606C33.4913 35.2793 33.3332 34.8978 33.3332 34.5C33.3332 34.1021 33.4913 33.7206 33.7726 33.4393C34.0539 33.158 34.4354 33 34.8332 33C35.231 33 35.6126 33.158 35.8939 33.4393C36.1752 33.7206 36.3332 34.1021 36.3332 34.5C36.3332 34.8978 36.1752 35.2793 35.8939 35.5606C35.6126 35.8419 35.231 36 34.8332 36Z" fill="white"/>
</svg>
