<svg width="32" height="32" viewBox="0 0 32 32" fill="none" xmlns="http://www.w3.org/2000/svg">
<g clip-path="url(#clip0_289_118)">
<path fill-rule="evenodd" clip-rule="evenodd" d="M20.004 5.33325C20.996 5.33325 22.044 5.67992 23.004 6.06259L23.7066 6.35059C25.3866 7.05459 26.3306 8.53192 27.0626 10.1546C28.2506 12.7879 29.076 16.2986 29.3613 18.9679C29.4973 20.2346 29.5306 21.5093 29.2866 22.3666C29.024 23.2826 28.1306 23.9306 27.2626 24.4399L26.8333 24.6839L26.388 24.9319C26.1586 25.0599 25.9226 25.1866 25.688 25.3106L24.992 25.6706L24.036 26.1466L23.2666 26.5253C23.1095 26.61 22.9369 26.6623 22.7591 26.6791C22.5813 26.6959 22.402 26.6768 22.2318 26.623C22.0615 26.5691 21.9038 26.4816 21.768 26.3657C21.6322 26.2497 21.5211 26.1077 21.4412 25.948C21.3614 25.7883 21.3144 25.6141 21.3031 25.4359C21.2918 25.2577 21.3165 25.0791 21.3755 24.9105C21.4346 24.742 21.5269 24.5871 21.647 24.455C21.7671 24.3228 21.9125 24.2161 22.0746 24.1413L23.128 23.6213L22.3546 22.8093C20.5013 23.5693 18.3186 23.9999 16 23.9999C13.6813 23.9999 11.4986 23.5706 9.64531 22.8093L8.87198 23.6199L9.92931 24.1399C10.086 24.2182 10.2258 24.3266 10.3406 24.4588C10.4554 24.5911 10.5431 24.7447 10.5986 24.9109C10.654 25.077 10.6762 25.2525 10.6639 25.4272C10.6515 25.6019 10.6049 25.7725 10.5266 25.9293C10.4484 26.086 10.34 26.2257 10.2077 26.3406C10.0754 26.4554 9.92185 26.543 9.75569 26.5985C9.42013 26.7105 9.0538 26.6847 8.73731 26.5266L8.01198 26.1666C7.47598 25.8999 6.93865 25.6359 6.40798 25.3573L5.17064 24.6839L4.74264 24.4399C3.87464 23.9306 2.97998 23.2826 2.71864 22.3666C2.47331 21.5093 2.50798 20.2359 2.64264 18.9666C2.92798 16.2986 3.75331 12.7879 4.94131 10.1546C5.67331 8.53192 6.61731 7.05459 8.29731 6.35059C9.41198 5.88392 10.7626 5.33325 12 5.33325C12.804 5.33325 13.436 6.07325 13.32 6.86259C14.2073 6.7313 15.103 6.66579 16 6.66659C16.9213 6.66659 17.8213 6.73325 18.6853 6.86392C18.6596 6.67457 18.6744 6.48192 18.7288 6.29873C18.7831 6.11554 18.8758 5.94597 19.0005 5.80127C19.1253 5.65656 19.2794 5.54001 19.4527 5.45933C19.6259 5.37864 19.8129 5.33567 20.004 5.33325ZM11.6666 13.9999C11.0478 13.9999 10.4543 14.2458 10.0167 14.6833C9.57914 15.1209 9.33331 15.7144 9.33331 16.3333C9.33331 16.9521 9.57914 17.5456 10.0167 17.9832C10.4543 18.4208 11.0478 18.6666 11.6666 18.6666C12.2855 18.6666 12.879 18.4208 13.3166 17.9832C13.7541 17.5456 14 16.9521 14 16.3333C14 15.7144 13.7541 15.1209 13.3166 14.6833C12.879 14.2458 12.2855 13.9999 11.6666 13.9999ZM20.3333 13.9999C19.7145 13.9999 19.121 14.2458 18.6834 14.6833C18.2458 15.1209 18 15.7144 18 16.3333C18 16.9521 18.2458 17.5456 18.6834 17.9832C19.121 18.4208 19.7145 18.6666 20.3333 18.6666C20.9522 18.6666 21.5456 18.4208 21.9832 17.9832C22.4208 17.5456 22.6666 16.9521 22.6666 16.3333C22.6666 15.7144 22.4208 15.1209 21.9832 14.6833C21.5456 14.2458 20.9522 13.9999 20.3333 13.9999Z" fill="white"/>
</g>
<defs>
<clipPath id="clip0_289_118">
<rect width="32" height="32" fill="blue"/>
</clipPath>
</defs>
</svg>
