<svg width="49" height="49" viewBox="0 0 49 49" fill="none" xmlns="http://www.w3.org/2000/svg">
<g clip-path="url(#clip0_237_16)">
<path d="M23.1667 16.694C21.2947 17.206 20.1667 18.644 20.1667 20C20.1667 21.356 21.2947 22.794 23.1667 23.304V16.694ZM26.1667 26.696V33.304C28.0387 32.794 29.1667 31.356 29.1667 30C29.1667 28.644 28.0387 27.206 26.1667 26.696Z" fill="white"/>
<path fill-rule="evenodd" clip-rule="evenodd" d="M44.6667 25C44.6667 36.046 35.7127 45 24.6667 45C13.6207 45 4.66675 36.046 4.66675 25C4.66675 13.954 13.6207 5 24.6667 5C35.7127 5 44.6667 13.954 44.6667 25ZM24.6667 11.5C25.0646 11.5 25.4461 11.658 25.7274 11.9393C26.0087 12.2206 26.1667 12.6022 26.1667 13V13.634C29.4267 14.218 32.1667 16.668 32.1667 20C32.1667 20.3978 32.0087 20.7794 31.7274 21.0607C31.4461 21.342 31.0646 21.5 30.6667 21.5C30.2689 21.5 29.8874 21.342 29.6061 21.0607C29.3248 20.7794 29.1667 20.3978 29.1667 20C29.1667 18.644 28.0387 17.206 26.1667 16.694V23.634C29.4267 24.218 32.1667 26.668 32.1667 30C32.1667 33.332 29.4267 35.782 26.1667 36.366V37C26.1667 37.3978 26.0087 37.7794 25.7274 38.0607C25.4461 38.342 25.0646 38.5 24.6667 38.5C24.2689 38.5 23.8874 38.342 23.6061 38.0607C23.3248 37.7794 23.1667 37.3978 23.1667 37V36.366C19.9067 35.782 17.1667 33.332 17.1667 30C17.1667 29.6022 17.3248 29.2206 17.6061 28.9393C17.8874 28.658 18.2689 28.5 18.6667 28.5C19.0646 28.5 19.4461 28.658 19.7274 28.9393C20.0087 29.2206 20.1667 29.6022 20.1667 30C20.1667 31.356 21.2947 32.794 23.1667 33.304V26.366C19.9067 25.782 17.1667 23.332 17.1667 20C17.1667 16.668 19.9067 14.218 23.1667 13.634V13C23.1667 12.6022 23.3248 12.2206 23.6061 11.9393C23.8874 11.658 24.2689 11.5 24.6667 11.5Z" fill="white"/>
</g>
<defs>
<clipPath id="clip0_237_16">
<rect x="0.666748" y="0.5" width="48" height="48" rx="24" fill="blue"/>
</clipPath>
</defs>
</svg>
