<svg width="32" height="32" viewBox="0 0 32 32" fill="none" xmlns="http://www.w3.org/2000/svg">
<path fill-rule="evenodd" clip-rule="evenodd" d="M9.02665 4.10942C13.6613 3.59569 18.3386 3.59569 22.9733 4.10942C25.5053 4.39209 27.5466 6.38542 27.844 8.92675C28.3936 13.6263 28.3936 18.3739 27.844 23.0734C27.5466 25.6148 25.5053 27.6081 22.9747 27.8921C18.3395 28.406 13.6618 28.406 9.02665 27.8921C6.49465 27.6081 4.45332 25.6148 4.15599 23.0748C3.60629 18.3748 3.60629 13.6267 4.15599 8.92675C4.45332 6.38542 6.49465 4.39209 9.02665 4.10942ZM21.88 11.9734L23 10.9028V10.6668H19.1306L16.372 17.5468L13.236 10.6668H9.17732V10.9028L10.484 12.4761C10.5475 12.533 10.5966 12.604 10.6274 12.6835C10.6582 12.763 10.6699 12.8486 10.6613 12.9334V19.1214C10.68 19.2313 10.6726 19.3441 10.6397 19.4506C10.6068 19.5572 10.5494 19.6545 10.472 19.7348L8.99999 21.5214V21.7548H13.1693V21.5201L11.6987 19.7361C11.6205 19.6559 11.5617 19.5591 11.5266 19.4528C11.4915 19.3465 11.481 19.2337 11.496 19.1228V13.7708L15.156 21.7561H15.5827L18.7253 13.7708V20.1348C18.7253 20.3041 18.7253 20.3361 18.6133 20.4481L17.4827 21.5454V21.7801H22.972V21.5454L21.8813 20.4734C21.8339 20.4375 21.7971 20.3894 21.7751 20.3342C21.753 20.279 21.7464 20.2188 21.756 20.1601V12.2868C21.7464 12.2281 21.753 12.1679 21.7751 12.1126C21.7971 12.0574 21.8326 12.0093 21.88 11.9734Z" fill="white"/>
</svg>
