<svg width="48" height="49" viewBox="0 0 48 49" fill="none" xmlns="http://www.w3.org/2000/svg">
<g clip-path="url(#clip0_237_27)">
<path d="M35.6666 27.0175C35.1079 26.7513 34.4366 26.4475 33.7729 26.1738C33.3379 26.8638 32.0554 28.9938 31.7966 29.7438C31.6622 30.1356 31.5987 30.5484 31.6091 30.9625C31.6114 31.1372 31.5976 31.3116 31.5679 31.4838C31.5051 31.8151 31.3522 32.1228 31.126 32.3729C30.8997 32.6229 30.6088 32.8058 30.2854 32.9013C29.9891 32.9913 29.3854 33.0963 28.6916 33.22C27.9605 33.3231 27.2375 33.4772 26.5279 33.6813C26.298 34.0308 26.0041 34.3336 25.6616 34.5738C25.5261 34.6698 25.3752 34.7421 25.2154 34.7875C25.2154 35.38 24.9941 36.2125 24.2741 36.3663C24.0986 36.3956 23.9187 36.3842 23.7483 36.3328C23.5779 36.2815 23.4217 36.1915 23.2916 36.07C23.2258 36.2894 23.1123 36.4916 22.9594 36.662C22.8064 36.8325 22.6177 36.9671 22.4066 37.0563C22.2376 37.1057 22.0605 37.1212 21.8854 37.1019C21.7103 37.0826 21.5408 37.0289 21.3866 36.9438C21.1879 37.4088 20.7941 38.0388 20.1191 38.0688C19.9251 38.0593 19.7358 38.0057 19.5656 37.9122C19.3953 37.8186 19.2486 37.6875 19.1366 37.5288C18.9451 37.8416 18.6792 38.1023 18.3625 38.2874C18.0458 38.4726 17.6882 38.5766 17.3216 38.59H17.1904C16.8662 38.5834 16.5569 38.4525 16.3266 38.2242C16.0962 37.996 15.9625 37.6879 15.9529 37.3638C15.8734 37.4082 15.7873 37.4399 15.6979 37.4575C15.5236 37.4741 15.348 37.4457 15.1879 37.375C15.226 37.5467 15.226 37.7246 15.1879 37.8963C14.9929 38.4925 13.4554 38.4138 12.4691 38.215C12.1413 38.1607 11.8292 38.0356 11.5547 37.8485C11.2801 37.6613 11.0495 37.4166 10.8791 37.1313C10.4141 37.5363 10.2116 37.5363 10.1291 37.5363C9.97165 37.5363 9.7129 37.5363 9.09415 36.3513C8.7379 36.3775 8.09665 36.415 7.8529 36.4C7.70061 36.3761 7.55856 36.3084 7.44404 36.2052C7.32952 36.102 7.24748 35.9678 7.2079 35.8188C6.99167 35.8333 6.77449 35.8168 6.5629 35.77C6.48996 35.7542 6.41937 35.729 6.3529 35.695C6.85165 36.9213 7.4779 38.0613 7.7404 38.6538C8.04209 39.2963 8.47697 39.8673 9.01617 40.3289C9.55537 40.7905 10.1866 41.1322 10.8679 41.3313C12.8966 41.8713 18.3679 41.995 20.2429 41.935C21.2776 41.9031 22.2963 41.6714 23.2429 41.2525C23.9972 40.9732 24.7878 40.804 25.5904 40.75C26.5841 40.675 29.2354 40.6788 29.8354 40.6563C31.1891 40.6038 32.5654 38.5225 33.4654 36.88C34.085 35.8841 34.3677 34.7153 34.2716 33.5463C34.2116 32.5975 34.1366 29.3875 34.4591 28.735C34.8015 28.1225 35.2061 27.5469 35.6666 27.0175ZM6.5704 32.755C6.45979 33.3889 6.40832 34.0316 6.41665 34.675C6.4354 34.7575 6.5104 35.05 6.71665 35.0988C6.83999 35.124 6.96578 35.1354 7.09165 35.1325C6.99485 34.404 6.97975 33.6669 7.04665 32.935C6.86665 32.875 6.71665 32.8188 6.5704 32.755ZM5.66665 32.2563C5.62033 32.8795 5.68121 33.5061 5.84665 34.1088C5.87564 33.5688 5.94079 33.0313 6.04165 32.5L5.66665 32.2563Z" fill="white"/>
<path d="M16.2004 32.335C15.8424 32.3363 15.4946 32.4549 15.2104 32.6725C14.8129 34.015 15.3454 36.19 15.4541 36.6137C15.794 36.2162 16.1001 35.791 16.3691 35.3425C16.7307 34.566 17.0025 33.7507 17.1791 32.9125L17.0929 32.8375C16.8635 32.5704 16.5476 32.3926 16.2004 32.335ZM18.7579 34.8587C18.8158 34.7997 18.8561 34.7257 18.8741 34.645L19.2154 32.905C19.1029 32.4925 18.0604 32.6612 17.9366 32.725C17.794 33.4391 17.6048 34.1431 17.3704 34.8325C17.8287 34.9129 18.2968 34.9218 18.7579 34.8587ZM16.9429 35.7475C16.8025 36.0665 16.7018 36.4015 16.6429 36.745C16.6129 37.4687 16.6954 37.8287 17.2504 37.87C18.7729 37.9637 18.8929 35.5525 18.8929 35.5525C18.6899 35.5987 18.4822 35.6201 18.2741 35.6162C17.8767 35.6073 17.4806 35.5685 17.0891 35.5C17.0455 35.5854 16.9967 35.6681 16.9429 35.7475ZM14.5429 32.125C13.9916 32.3425 11.4079 36.6512 11.4079 36.6512C11.5187 36.8828 11.6848 37.0835 11.8914 37.2359C12.098 37.3882 12.3389 37.4875 12.5929 37.525C13.2176 37.6802 13.8679 37.7019 14.5016 37.5887C14.9441 35.9987 14.0554 34.7987 14.5429 32.125ZM9.36411 33.6925C9.31765 34.4299 9.40662 35.1696 9.62661 35.875C9.76236 36.2063 9.94415 36.5169 10.1666 36.7975C10.9429 36.385 12.2066 34.15 12.2066 34.15C11.2787 34.1455 10.3564 34.0052 9.46911 33.7337L9.36411 33.6925ZM8.43411 33.4L7.68411 33.175C7.64843 33.9129 7.68359 34.6525 7.78911 35.3837C7.80876 35.5007 7.85078 35.6127 7.91286 35.7137C8.08536 35.7137 8.47911 35.7137 8.84286 35.68C8.66339 34.9596 8.6076 34.214 8.67786 33.475L8.43411 33.4ZM5.95911 31.6075C6.22181 31.7802 6.50061 31.9272 6.79161 32.0462C6.79161 32.0462 7.47036 30.9587 7.84161 30.3437C7.80395 30.2932 7.75983 30.2478 7.71036 30.2087C7.38033 30.0152 7.0013 29.9214 6.61911 29.9387C6.30858 30.4548 6.08556 31.0186 5.95911 31.6075ZM8.47536 30.625C8.16786 31.1387 7.59786 32.0537 7.42911 32.3237C7.68036 32.4137 7.93536 32.4962 8.17911 32.575C8.50867 31.8541 8.93511 31.1817 9.44661 30.5762C9.41071 30.5442 9.36858 30.5199 9.32286 30.505C9.03477 30.4738 8.74346 30.515 8.47536 30.625ZM10.9166 30.8875C10.7602 30.8392 10.5942 30.83 10.4334 30.8607C10.2726 30.8915 10.1217 30.9612 9.99411 31.0637C9.53434 31.5801 9.15507 32.1629 8.86911 32.7925C9.18411 32.8862 9.91536 33.1375 9.99411 33.1675L11.3141 31.225C11.3816 31.1312 10.9879 30.91 10.9166 30.8875ZM12.4954 31.0712C12.1804 31.21 10.7441 33.3212 10.7441 33.3212C11.3816 33.4091 12.0243 33.4542 12.6679 33.4562L13.4179 32.3312C13.5716 32.1137 13.3429 31.4425 13.2416 31.3525C13.0222 31.1942 12.7646 31.0972 12.4954 31.0712ZM23.4341 32.44L23.4604 33.6925C23.7904 33.6325 24.1016 33.5837 24.3679 33.5575C24.4129 33.1 24.4504 32.6125 24.4466 32.3762C24.1078 32.3645 23.7687 32.3859 23.4341 32.44ZM28.5829 32.5262C29.2316 32.4137 29.8429 32.305 30.0829 32.2262C30.2856 32.1663 30.4674 32.0504 30.6074 31.8919C30.7473 31.7334 30.8398 31.5386 30.8741 31.33C30.8942 31.206 30.903 31.0805 30.9004 30.955C30.9014 30.4579 30.9916 29.9651 31.1666 29.5C31.4441 28.6937 32.6441 26.7025 33.1429 25.8962C32.5665 25.6314 31.951 25.4617 31.3204 25.3937C30.5384 25.478 29.8084 25.8258 29.2504 26.38C29.2275 26.4348 29.2087 26.4912 29.1941 26.5487C29.0691 27.0108 28.8336 27.4355 28.5079 27.7862C28.2462 28.0481 27.9598 28.2842 27.6529 28.4912C27.0266 28.9412 26.6404 29.2412 26.6404 29.8375C26.6404 30.1262 26.6629 30.7112 26.6816 31.315C26.7079 32.065 26.7229 32.5562 26.7266 32.8825C27.1054 32.7925 27.7016 32.6837 28.5829 32.5262ZM19.4554 36.7375C19.4891 36.7825 19.6541 37.3262 20.1116 37.345C21.1429 37.4387 20.8616 34.93 20.8616 34.93C20.6629 34.93 20.1829 34.9787 19.6691 35.02L19.4554 36.7375ZM13.1666 21.6625C13.0354 21.73 12.8404 22.1387 12.6529 23.7175C12.5691 24.3166 12.3946 24.8996 12.1354 25.4462C12.0413 25.6476 11.9624 25.8557 11.8991 26.0687C11.8298 26.3173 11.8527 26.5825 11.9637 26.8155C12.0746 27.0485 12.2662 27.2334 12.5029 27.3362C12.7091 27.4404 12.9455 27.4683 13.1704 27.415C12.7279 27.1937 12.8179 26.725 12.9304 26.185C12.9604 26.035 12.9979 25.8587 13.0354 25.6525C13.0821 25.3224 13.1943 25.0049 13.3654 24.7187C13.4591 24.5537 13.4966 24.4862 13.4441 24.1075C13.3852 23.3399 13.5774 22.5739 13.9916 21.925C14.0366 21.835 14.0816 21.7525 14.1229 21.6662C14.1574 21.6023 14.2017 21.5441 14.2541 21.4937C13.883 21.4497 13.5069 21.508 13.1666 21.6625ZM42.4466 15.2237C42.4455 14.957 42.3846 14.6939 42.2685 14.4538C42.1523 14.2137 41.9838 14.0026 41.7754 13.8362C41.4229 13.5775 39.1241 11.6125 38.7229 10.9075C37.7591 9.22372 35.6591 8.28247 33.8479 8.08372C31.9746 7.98157 30.0958 8.1075 28.2529 8.45872C27.2199 8.86067 26.2289 9.36308 25.2941 9.95872L25.2004 10.0075C26.5654 10.0075 27.8816 10.1687 28.8191 10.7125C30.0379 11.4175 31.2079 12.52 31.5304 15.79C31.6199 16.9839 31.6073 18.1832 31.4929 19.375C31.3991 20.7775 31.3241 21.8875 31.7854 22.4575C31.9504 22.66 32.5354 22.8625 33.2029 23.095C34.8533 23.6098 36.4134 24.3791 37.8266 25.375C38.0441 25.3 38.2766 25.2362 38.5766 25.165C39.4766 24.9362 40.6766 23.095 41.0216 21.9775C41.1641 21.4975 41.2916 20.1025 41.4529 19.5137C41.6516 18.8087 42.0529 17.8075 42.1466 17.4962C42.3446 16.7549 42.4455 15.991 42.4466 15.2237Z" fill="white"/>
<path d="M32.9741 23.7662C32.1041 23.4662 31.5304 23.2675 31.2416 22.9075C30.6041 22.1237 30.6866 20.8937 30.7916 19.3337C30.8989 18.1778 30.9077 17.0149 30.8179 15.8575C30.5441 13.0675 29.6929 12.025 28.4554 11.32C27.1541 10.57 24.9229 10.6412 22.9691 10.8362C22.2915 11.0547 21.5926 11.2005 20.8841 11.2712C20.1079 11.2712 18.8966 10.69 18.4616 10.4125C18.0443 10.109 17.5572 9.91549 17.0453 9.84994C16.5334 9.7844 16.0132 9.8489 15.5329 10.0375C15.0379 10.2062 14.3741 10.5062 14.1566 10.9375C13.6807 12.047 13.3176 13.2016 13.0729 14.3837C13.0174 14.9864 12.8916 15.5804 12.6979 16.1537C12.5366 16.5925 11.8579 18.6887 11.6704 19.0187C11.4829 19.3487 10.9166 20.0875 10.2454 21.1112C9.97635 21.5444 9.82751 22.0415 9.81412 22.5512C9.85537 23.005 10.6391 23.8825 10.5379 25.0937C10.4629 25.9412 9.45037 26.5937 8.32162 27.7187C7.84416 28.1915 7.41457 28.7103 7.03912 29.2675C7.44197 29.312 7.82802 29.4535 8.16412 29.68C8.25628 29.7565 8.33933 29.8433 8.41162 29.9387C8.78066 29.8054 9.18021 29.7806 9.56287 29.8675C9.8018 29.9404 10.0042 30.1012 10.1291 30.3175C10.4085 30.2447 10.6955 30.2057 10.9841 30.2012C11.3128 30.2776 11.6061 30.4626 11.8166 30.7262C11.9711 30.5791 12.1552 30.4666 12.3566 30.3962C12.6829 30.3212 13.3354 30.6212 13.6016 30.7712C13.6841 30.8087 13.8979 30.9175 14.0891 31.6375C14.1847 31.528 14.3076 31.446 14.4454 31.3999C14.5831 31.3538 14.7307 31.3452 14.8729 31.375C14.9479 31.405 15.1391 31.4762 15.2254 31.8887C15.5462 31.7248 15.9042 31.6472 16.2641 31.6637C16.7163 31.7113 17.1386 31.9125 17.4604 32.2337C17.8778 32.0049 18.357 31.9143 18.8291 31.975C19.1409 32.0069 19.4341 32.1384 19.6654 32.35C19.8789 32.1166 20.1716 31.9709 20.4866 31.9412C20.6213 31.9286 20.7568 31.9526 20.879 32.0107C21.0011 32.0688 21.1052 32.1588 21.1804 32.2712C21.252 32.1673 21.335 32.0717 21.4279 31.9862C21.6416 31.795 22.0016 31.7987 22.4629 31.81C22.6552 31.8218 22.8481 31.8218 23.0404 31.81C24.3716 31.6262 24.9716 31.6225 25.1179 32.065C25.2079 32.3312 24.8629 33.535 25.1479 34.1087C25.5077 33.8965 25.8071 33.5957 26.0179 33.235C26.0179 33.1112 25.9954 32.11 25.9691 31.36C25.9691 30.745 25.9316 30.1525 25.9316 29.86C25.9316 28.8812 26.6254 28.3825 27.2366 27.9437C27.5059 27.7635 27.7571 27.5575 27.9866 27.3287C28.2401 27.0557 28.4229 26.7249 28.5191 26.365C28.5489 26.2505 28.5917 26.1398 28.6466 26.035C29.3226 25.278 30.2609 24.8062 31.2716 24.715C32.2991 24.6287 35.6666 26.215 36.2104 26.485C36.3154 26.3837 36.4166 26.2862 36.5179 26.2037C36.713 26.0345 36.9198 25.8791 37.1366 25.7387C35.8499 24.8869 34.4483 24.2227 32.9741 23.7662ZM15.1841 27.1L15.0491 27.1862C14.0629 27.8087 13.5154 28.1537 12.9416 28.1537C12.69 28.1521 12.4413 28.0998 12.2104 28C11.8206 27.8304 11.5043 27.5271 11.3186 27.1447C11.1329 26.7623 11.0901 26.3262 11.1979 25.915C11.2698 25.6583 11.3613 25.4076 11.4716 25.165C11.7042 24.6806 11.861 24.1633 11.9366 23.6312C12.1091 22.1312 12.3116 21.295 12.8329 21.0325C13.3879 20.7512 14.3629 20.5562 15.8329 21.2087C17.1791 21.8012 17.7716 22.3337 17.8729 23.035C17.9741 23.7362 17.4379 25.675 15.1841 27.1ZM19.6391 13.795L19.6016 14.17C19.4254 15.8087 19.2266 17.845 18.3079 18.4525C17.3891 19.06 16.0054 19.2025 15.1879 19.2025H15.0416C13.8866 19.1687 13.2829 18.3812 13.2829 17.62C13.2829 17.1287 13.6016 16.6262 13.9729 16.045C14.2087 15.6837 14.4216 15.308 14.6104 14.92C14.7713 14.5685 14.9042 14.2049 15.0079 13.8325C15.1302 13.3485 15.3276 12.8866 15.5929 12.4637C16.0241 11.7625 17.2241 11.215 18.1166 11.5525L18.2891 11.6162C18.8891 11.8262 19.8229 12.16 19.6391 13.795ZM28.6391 16.825C28.2979 17.7587 27.2441 19.825 26.1679 20.335C25.6232 20.5679 25.0351 20.6817 24.4429 20.6687C23.3927 20.682 22.3603 20.3973 21.4654 19.8475C20.8054 19.39 20.8054 18.2875 20.8091 17.2225V16.8475C20.8585 16.1932 21.0052 15.5499 21.2441 14.9387C21.2821 14.8546 21.3498 14.7874 21.4342 14.75C21.5186 14.7127 21.6138 14.7078 21.7016 14.7362C21.7447 14.7532 21.7841 14.7785 21.8174 14.8107C21.8507 14.8429 21.8774 14.8813 21.8958 14.9238C21.9143 14.9663 21.9242 15.012 21.925 15.0583C21.9257 15.1046 21.9174 15.1507 21.9004 15.1937C21.6967 15.7229 21.5704 16.2786 21.5254 16.8437V17.2187C21.5254 17.9687 21.5254 19.015 21.9004 19.2625C22.1796 19.4441 22.4825 19.5867 22.8004 19.6862C22.6038 18.7296 22.5369 17.7508 22.6016 16.7762C22.6954 16.0262 24.1241 13.5437 24.9904 12.6512C24.3488 12.7597 23.7414 13.0165 23.2166 13.4012C23.1421 13.451 23.0515 13.4705 22.9632 13.4558C22.8748 13.4411 22.7954 13.3934 22.741 13.3222C22.6866 13.2511 22.6612 13.162 22.6702 13.0728C22.6791 12.9837 22.7217 12.9014 22.7891 12.8425C23.2541 12.49 24.2891 11.9312 25.1029 11.9312C25.6477 11.9442 26.1823 12.0822 26.6653 12.3344C27.1484 12.5867 27.5671 12.9466 27.8891 13.3862C28.7479 14.56 29.0291 15.7787 28.6429 16.825H28.6391Z" fill="white"/>
<path d="M16.1666 12.8238C15.9345 13.1926 15.7635 13.5966 15.6604 14.02C15.5483 14.4276 15.4028 14.8252 15.2254 15.2088C15.0236 15.618 14.7957 16.0139 14.5429 16.3938C14.266 16.7474 14.069 17.1568 13.9654 17.5938C13.9654 18.0925 14.4079 18.4563 15.0416 18.4713H15.1879C15.089 17.8933 15.1446 17.2995 15.3491 16.75C15.5552 16.1919 15.8298 15.6616 16.1666 15.1713C16.4572 14.7292 16.7081 14.2624 16.9166 13.7763C17.0417 13.4029 17.1247 13.0168 17.1641 12.625C17.1866 12.4488 17.2054 12.3063 17.2279 12.1788C16.8062 12.2542 16.4278 12.4842 16.1666 12.8238ZM20.8804 32.9538C20.8804 32.8075 20.6104 32.6463 20.5054 32.6388C20.4004 32.6313 19.9354 32.83 19.9016 33.0138L19.7441 34.3075L20.8691 34.225L20.8804 32.9538ZM21.5479 36.205C21.6359 36.2874 21.7429 36.3466 21.8594 36.3774C21.9759 36.4081 22.0982 36.4095 22.2154 36.3813C22.4854 36.3025 22.7104 35.7025 22.7854 35.305V34.555C22.3879 34.6375 22.0054 34.7238 21.6979 34.7913L21.5779 34.8175L21.5479 36.205ZM22.7329 32.5C22.7329 32.4213 22.1329 32.395 21.8479 32.5225C21.7764 32.5582 21.7149 32.6112 21.6691 32.6767C21.6232 32.7422 21.5945 32.8181 21.5854 32.8975V34.0713L22.7741 33.8163L22.7329 32.5ZM24.4391 34.255C24.1616 34.285 23.8241 34.3375 23.4716 34.405L23.4904 35.2338C23.6104 35.4175 23.8654 35.7325 24.1429 35.6763C24.5029 35.6013 24.7916 34.66 24.4391 34.255Z" fill="white"/>
</g>
<defs>
<clipPath id="clip0_237_27">
<rect y="0.5" width="48" height="48" rx="24" fill="blue"/>
</clipPath>
</defs>
</svg>
