<svg width="37" height="38" viewBox="0 0 37 38" fill="blue" xmlns="http://www.w3.org/2000/svg">
<path d="M34.3334 6C34.3334 7.5913 33.7012 9.11742 32.576 10.2426C31.4508 11.3679 29.9247 12 28.3334 12C26.7421 12 25.216 11.3679 24.0907 10.2426C22.9655 9.11742 22.3334 7.5913 22.3334 6C22.3334 4.4087 22.9655 2.88258 24.0907 1.75736C25.216 0.632141 26.7421 0 28.3334 0C29.9247 0 31.4508 0.632141 32.576 1.75736C33.7012 2.88258 34.3334 4.4087 34.3334 6ZM8.33337 2C6.21164 2 4.17681 2.84285 2.67652 4.34315C1.17623 5.84344 0.333374 7.87827 0.333374 10V14H4.33337V10C4.33337 8.93913 4.7548 7.92172 5.50495 7.17157C6.25509 6.42143 7.27251 6 8.33337 6H14.3334V2H8.33337ZM28.3334 38C30.4551 38 32.4899 37.1571 33.9902 35.6569C35.4905 34.1566 36.3334 32.1217 36.3334 30V26H32.3334V30C32.3334 31.0609 31.9119 32.0783 31.1618 32.8284C30.4117 33.5786 29.3942 34 28.3334 34H22.3334V38H28.3334ZM8.33337 28C9.92467 28 11.4508 27.3679 12.576 26.2426C13.7012 25.1174 14.3334 23.5913 14.3334 22C14.3334 20.4087 13.7012 18.8826 12.576 17.7574C11.4508 16.6321 9.92467 16 8.33337 16C6.74207 16 5.21595 16.6321 4.09073 17.7574C2.96552 18.8826 2.33337 20.4087 2.33337 22C2.33337 23.5913 2.96552 25.1174 4.09073 26.2426C5.21595 27.3679 6.74207 28 8.33337 28ZM28.3334 14C26.2116 14 24.1768 14.8429 22.6765 16.3431C21.1762 17.8434 20.3334 19.8783 20.3334 22H36.3334C36.3334 19.8783 35.4905 17.8434 33.9902 16.3431C32.4899 14.8429 30.4551 14 28.3334 14ZM0.333374 38C0.333374 35.8783 1.17623 33.8434 2.67652 32.3431C4.17681 30.8429 6.21164 30 8.33337 30C10.4551 30 12.4899 30.8429 13.9902 32.3431C15.4905 33.8434 16.3334 35.8783 16.3334 38H0.333374Z" fill="white"/>
</svg>
