<svg width="49" height="49" viewBox="0 0 49 49" fill="none" xmlns="http://www.w3.org/2000/svg">
<path d="M24.5182 29.5664C20.9233 42.5446 30.2121 42.5877 30.2121 42.5877C29.0359 40.5666 30.1578 34.3308 30.1578 34.3308C25.2601 32.3744 24.5182 29.5664 24.5182 29.5664ZM11.906 16.3995C28.5594 8.40673 30.194 25.3248 30.194 25.3248L34.1387 24.5002C30.4413 3.52373 12.099 16.2648 11.906 16.3995ZM9.9155 15.2084C16.6348 11.3117 23.4083 8.24504 31.8828 13.9527C40.3694 19.6603 37.5466 40.0816 37.5466 40.0816L35.9421 38.7395L34.9831 27.7285C34.9831 27.7285 28.487 28.6017 28.6016 30.267C28.7162 31.9378 33.638 33.1613 33.638 33.1613V48.4786C13.9567 41.3104 22.9922 32.4337 21.1827 29.2969C19.3732 26.1655 17.9437 28.5909 17.9437 28.5909C15.6275 44.7382 1.03086 35.5866 1.03086 35.5866C17.7084 27.8256 0.506104 18.2051 0.506104 18.2051C0.506104 18.2051 2.72576 0.66723 23.7341 0.527101C44.7363 0.38697 48.5061 20.3717 48.5061 20.3717L33.9999 14.1952C22.6061 3.1788 10.0784 15.0575 9.92153 15.2138L9.9155 15.2084Z" fill="#00FF85"/>
</svg>
