<svg width="39" height="38" viewBox="0 0 39 38" fill="none" xmlns="http://www.w3.org/2000/svg">
<path d="M37.9508 18.8679C38.4135 24.0639 35.6238 28.6263 32.5513 32.5102C29.9761 35.3648 26.29 36.5685 22.6028 37.2995C19.0285 38.5166 15.0406 38.1254 11.7434 36.2992C10.5878 35.8186 9.23091 35.6744 8.20376 34.9848C4.98597 32.9215 3.14739 29.478 1.7447 26.0109C-0.0737599 22.7518 -0.200058 18.765 0.164305 15.1225C0.409077 13.8852 1.2451 12.8514 1.71564 11.7125C2.53043 9.33518 3.85711 7.28312 5.70464 5.59319C6.58313 4.71358 7.24368 3.55567 8.27865 2.86159C9.30579 2.17198 10.6291 2.01439 11.7848 1.53379C12.9204 1.06213 13.9844 0.326694 15.2183 0.0819224C16.4165 -0.156143 17.6783 0.200396 18.9458 0.200396C21.4438 0.137806 23.9552 0.365813 26.2945 1.08224C27.4502 1.56285 28.2851 2.62464 29.3122 3.31425C30.3472 4.00944 31.5465 4.47663 32.4238 5.35625C34.2155 7.10653 35.759 9.16865 36.8275 11.4431C37.554 13.8003 37.8971 16.3486 37.9508 18.8679Z" fill="#FFCC4D"/>
<path d="M24.1706 17.8362C25.4861 17.4059 26.9022 18.1279 27.3302 19.4457C27.7594 20.7634 27.0396 22.1806 25.7197 22.6098C24.3997 23.039 21.3931 22.8345 20.9639 21.5167C20.5359 20.1968 22.8495 18.2632 24.1706 17.8362ZM33.7491 17.0852C33.3243 17.5903 32.5699 17.6574 32.0647 17.2316C31.5595 16.8057 31.4936 16.0524 31.9183 15.5461C32.3441 15.042 33.6105 14.3647 34.1157 14.7894C34.622 15.2153 34.1749 16.5788 33.7491 17.0852ZM9.16014 9.2614C8.73543 9.7666 7.98099 9.83366 7.4758 9.40782C6.97061 8.98199 6.90467 8.22979 7.32939 7.72236C7.75522 7.21829 9.02155 6.54098 9.52674 6.96569C10.0331 7.39153 9.58598 8.7551 9.16014 9.2614ZM22.6762 7.14452C21.8402 6.61027 21.5932 5.4993 22.1286 4.66328C22.6639 3.82614 23.7749 3.58137 24.612 4.11562C25.4492 4.65098 26.7043 6.40686 26.1701 7.24288C25.6336 8.08114 23.5134 7.68101 22.6762 7.14452ZM13.8175 14.0931C13.2419 12.9017 13.746 11.4655 14.9408 10.8921C16.1356 10.3187 17.5684 10.8239 18.1418 12.0187C18.7152 13.2146 18.9041 16.0904 17.7093 16.6616C16.5122 17.236 14.3886 15.2902 13.8175 14.0931ZM14.962 29.8513C15.6349 28.8744 16.9738 28.6263 17.9484 29.3014C18.9253 29.9776 19.1712 31.3143 18.4961 32.2912C17.821 33.268 15.6706 34.6908 14.696 34.0169C13.718 33.3418 14.2869 30.827 14.962 29.8513ZM26.1533 29.3975C25.3855 28.9102 25.1597 27.8909 25.6515 27.1241C26.141 26.3585 27.1592 26.1339 27.926 26.6245C28.6927 27.1141 29.8428 28.7235 29.3521 29.488C28.8626 30.257 26.92 29.8893 26.1533 29.3975ZM5.05603 19.4826C5.9077 18.5292 7.37074 18.4476 8.323 19.3004C9.27526 20.1543 9.35574 21.6151 8.50295 22.5662C7.65016 23.5207 5.15886 24.7513 4.20771 23.8974C3.25322 23.0446 4.20212 20.4337 5.05603 19.4826Z" fill="#8A4B38"/>
</svg>
